# xmcd CD database file
# Generated: Thu Jan 23 13:07:41 2003 by KSCD
# 
# Track frame offsets:
#       150
#       48130
#       72677
#       124355
#       150137
#       210157
#       233935
#       255295
#       281062
#
# Disc length: 4022 seconds
#
# Revision: 1
# Processed by: cddbd v1.4PL0 Copyright (c) Steve Scherf et al.
# Submitted via: Kscd 1.3.3
#
DISCID=750fb409
DTITLE=gospel - go
DYEAR=1900
DGENRE=
TTITLE0=
TTITLE1=go
TTITLE2=
TTITLE3=
TTITLE4=
TTITLE5=
TTITLE6=
TTITLE7=
TTITLE8=
EXTD=
EXTT0=
EXTT1=
EXTT2=
EXTT3=
EXTT4=
EXTT5=
EXTT6=
EXTT7=
EXTT8=
PLAYORDER=
